<svg x="0" y="0" width="48" height="48" version="1.1" xmlns="http://www.w3.org/2000/svg" xmlns:xlink="http://www.w3.org/1999/xlink"><defs><linearGradient x1="11.68966" y1="14.15173" x2="57.52354" y2="55.06147" gradientUnits="userSpaceOnUse" id="color-1"><stop offset="0" stop-color="#000000" stop-opacity="0.7"></stop><stop offset="1" stop-color="#000000" stop-opacity="0"></stop></linearGradient><filter id="dropshadow"><feColorMatrix type="matrix" values="0 0 0 0 .05  0 0 0 0 .15  0 0 0 0 .1  0 0 0 .8 0"></feColorMatrix> <feOffset dx="0" dy="1"></feOffset> <feGaussianBlur stdDeviation="1"></feGaussianBlur> <feComposite in="SourceGraphic"></feComposite></filter></defs><g fill="none" stroke="none" stroke-width="none" stroke-linecap="butt" stroke-linejoin="miter" stroke-miterlimit="none" stroke-dasharray="" stroke-dashoffset="0" font-family="none" font-weight="normal" font-size="none" text-anchor="start" mix-blend-mode="normal"><g fill="#000000" stroke="none" stroke-width="1" stroke-miterlimit="4" font-family="'Open Sans', sans-serif" font-size="14"></g><path d="M3,24c0,-11.59798 9.40202,-21 21,-21c11.59798,0 21,9.40202 21,21c0,11.59798 -9.40202,21 -21,21c-11.59798,0 -21,-9.40202 -21,-21z" fill="#512da8" stroke-width="1" stroke-miterlimit="10" font-family="sans-serif" font-size="12" filter="url(#dropshadow)"></path><path d="M12.41058,33.12734c-0.44548,-0.44548 -0.72092,-1.06098 -0.72092,-1.74113c0,0 0,-0.00001 0,-0.00001l0,0c0,0 0.01231,-14.7724 0.01231,-14.7724c0,-1.36029 1.08947,-2.46207 2.44976,-2.46207l19.69654,0c0.68014,0 1.29566,0.27544 1.74114,0.72092l9.40874,9.40874c-0.14938,11.37463 -9.34213,20.56738 -20.71676,20.71676z" fill="url(#color-1)" stroke-width="1" stroke-miterlimit="10" font-family="sans-serif" font-size="12"></path><path d="M36.31034,16.6138l0,14.77241c0,1.36029 -1.10178,2.46207 -2.46207,2.46207l-19.69654,0c-1.36029,0 -2.46207,-1.10178 -2.46207,-2.46207l0.01231,-14.77241c0,-1.36029 1.08946,-2.46207 2.44976,-2.46207l19.69654,0c1.36029,0 2.46207,1.10178 2.46207,2.46207z M33.84827,24l-19.69654,0l0,7.3862l19.69654,0z M33.84827,16.6138l-19.69654,0l0,2.46207l19.69654,0z" fill="#ffffff" stroke="none" stroke-width="0" stroke-miterlimit="4" font-family="'Open Sans', sans-serif" font-size="14"></path></g></svg>